<mxfile host="app.diagrams.net" agent="Mozilla/5.0 (Windows NT 10.0; Win64; x64) AppleWebKit/537.36 (KHTML, like Gecko) Chrome/127.0.0.0 Safari/537.36" version="24.7.7">
  <diagram name="PÃ¡gina-1" id="qWOeamEe4wAReyJq5sqj">
    <mxGraphModel dx="1195" dy="622" grid="1" gridSize="10" guides="1" tooltips="1" connect="1" arrows="1" fold="1" page="1" pageScale="1" pageWidth="827" pageHeight="1169" math="0" shadow="0">
      <root>
        <mxCell id="0" />
        <mxCell id="1" parent="0" />
        <mxCell id="eZbJZ3IwzWxA3NWpafqn-1" value="Inicio" style="ellipse;whiteSpace=wrap;html=1;" vertex="1" parent="1">
          <mxGeometry x="340" y="80" width="120" height="80" as="geometry" />
        </mxCell>
        <mxCell id="eZbJZ3IwzWxA3NWpafqn-10" style="edgeStyle=orthogonalEdgeStyle;rounded=0;orthogonalLoop=1;jettySize=auto;html=1;entryX=0.5;entryY=0;entryDx=0;entryDy=0;" edge="1" parent="1" source="eZbJZ3IwzWxA3NWpafqn-2" target="eZbJZ3IwzWxA3NWpafqn-3">
          <mxGeometry relative="1" as="geometry" />
        </mxCell>
        <mxCell id="eZbJZ3IwzWxA3NWpafqn-2" value="A, B" style="shape=manualInput;whiteSpace=wrap;html=1;" vertex="1" parent="1">
          <mxGeometry x="355" y="170" width="90" height="90" as="geometry" />
        </mxCell>
        <mxCell id="eZbJZ3IwzWxA3NWpafqn-11" style="edgeStyle=orthogonalEdgeStyle;rounded=0;orthogonalLoop=1;jettySize=auto;html=1;entryX=0.5;entryY=0;entryDx=0;entryDy=0;" edge="1" parent="1" source="eZbJZ3IwzWxA3NWpafqn-3" target="eZbJZ3IwzWxA3NWpafqn-5">
          <mxGeometry relative="1" as="geometry" />
        </mxCell>
        <mxCell id="eZbJZ3IwzWxA3NWpafqn-3" value="SOMA &amp;lt;- A + B" style="rounded=0;whiteSpace=wrap;html=1;" vertex="1" parent="1">
          <mxGeometry x="340" y="290" width="120" height="60" as="geometry" />
        </mxCell>
        <mxCell id="eZbJZ3IwzWxA3NWpafqn-5" value="SOMA &amp;gt;= 10" style="rhombus;whiteSpace=wrap;html=1;" vertex="1" parent="1">
          <mxGeometry x="345" y="380" width="110" height="110" as="geometry" />
        </mxCell>
        <mxCell id="eZbJZ3IwzWxA3NWpafqn-9" style="edgeStyle=orthogonalEdgeStyle;rounded=0;orthogonalLoop=1;jettySize=auto;html=1;entryX=0.501;entryY=0.172;entryDx=0;entryDy=0;entryPerimeter=0;" edge="1" parent="1" source="eZbJZ3IwzWxA3NWpafqn-1" target="eZbJZ3IwzWxA3NWpafqn-2">
          <mxGeometry relative="1" as="geometry" />
        </mxCell>
        <mxCell id="eZbJZ3IwzWxA3NWpafqn-16" value="" style="rounded=0;whiteSpace=wrap;html=1;" vertex="1" parent="1">
          <mxGeometry x="240" y="520" width="120" height="60" as="geometry" />
        </mxCell>
        <mxCell id="eZbJZ3IwzWxA3NWpafqn-17" value="" style="rounded=0;whiteSpace=wrap;html=1;" vertex="1" parent="1">
          <mxGeometry x="445" y="520" width="120" height="60" as="geometry" />
        </mxCell>
        <mxCell id="eZbJZ3IwzWxA3NWpafqn-18" value="" style="verticalLabelPosition=bottom;verticalAlign=top;html=1;shape=mxgraph.flowchart.on-page_reference;" vertex="1" parent="1">
          <mxGeometry x="370" y="620" width="60" height="60" as="geometry" />
        </mxCell>
        <mxCell id="eZbJZ3IwzWxA3NWpafqn-21" value="Inicio" style="ellipse;whiteSpace=wrap;html=1;" vertex="1" parent="1">
          <mxGeometry x="345" y="710" width="120" height="80" as="geometry" />
        </mxCell>
      </root>
    </mxGraphModel>
  </diagram>
</mxfile>
